<svg width="46" height="29" viewBox="0 0 46 29" fill="none" xmlns="http://www.w3.org/2000/svg">
<rect y="1" width="32" height="16" fill="white"/>
<path d="M16.1106 10L32 1L0 1.03726L16.1106 10Z" class="darkColor"/>
<path d="M43.104 16.928C43.792 16.928 44.248 17 44.472 17.144C44.696 17.272 44.808 17.56 44.808 18.008C44.808 18.36 44.64 18.616 44.304 18.776C43.968 18.936 43.576 19.016 43.128 19.016L42.336 19.04C41.792 19.072 41.392 19.088 41.136 19.088C40.912 19.088 40.768 19.08 40.704 19.064C40.672 19.176 40.656 19.36 40.656 19.616C40.64 19.84 40.664 20.192 40.728 20.672C40.744 20.768 40.76 20.904 40.776 21.08C40.792 21.256 40.8 21.416 40.8 21.56C40.8 22.024 40.712 22.376 40.536 22.616C40.36 22.84 40.072 22.952 39.672 22.952C39.432 22.952 39.192 22.864 38.952 22.688C38.728 22.496 38.616 22.288 38.616 22.064C38.616 20.8 38.584 19.792 38.52 19.04C38.088 18.992 37.816 18.968 37.704 18.968C37.32 18.968 36.944 18.992 36.576 19.04C36.096 19.072 35.752 19.088 35.544 19.088C35.128 19.072 34.776 18.992 34.488 18.848C34.216 18.688 34.08 18.448 34.08 18.128C34.08 17.776 34.152 17.528 34.296 17.384C34.536 17.128 35.008 17 35.712 17C36.08 17 36.488 16.984 36.936 16.952C37.32 16.92 37.584 16.904 37.728 16.904C37.872 16.904 38.008 16.92 38.136 16.952C38.264 16.968 38.384 16.976 38.496 16.976C38.528 16.832 38.544 16.6 38.544 16.28C38.544 16.008 38.528 15.616 38.496 15.104C38.464 14.624 38.448 14.272 38.448 14.048C38.448 13.568 38.512 13.216 38.64 12.992C38.784 12.768 39.064 12.656 39.48 12.656C39.848 12.656 40.128 12.736 40.32 12.896C40.512 13.04 40.608 13.248 40.608 13.52C40.624 13.856 40.616 14.344 40.584 14.984L40.56 16.064C40.56 16.448 40.568 16.736 40.584 16.928C40.968 16.96 41.248 16.976 41.424 16.976C41.792 16.976 42.064 16.968 42.24 16.952L43.104 16.928Z" fill="white"/>
<path d="M16.5 10V16" class="lightColor"/>
<line x1="1" y1="10.5" x2="31" y2="10.5" class="lightColor"/>
</svg>
