<svg width="24" height="24" viewBox="0 0 24 24" fill="none" xmlns="http://www.w3.org/2000/svg">
<path d="M12 1C5.92525 1 1 5.92525 1 12C1 18.0748 5.92525 23 12 23C18.0748 23 23 18.0748 23 12C23 5.92525 18.0748 1 12 1ZM18.1481 9.89808L11.2181 16.8281C11.0458 17.0004 10.8129 17.0967 10.57 17.0967C10.3271 17.0967 10.0933 17.0004 9.92192 16.8281L6.75667 13.6628C6.39825 13.3044 6.39825 12.7251 6.75667 12.3667C7.11508 12.0082 7.69442 12.0082 8.05283 12.3667L10.57 14.8838L16.8519 8.60192C17.2103 8.2435 17.7897 8.2435 18.1481 8.60192C18.5065 8.96033 18.5065 9.53967 18.1481 9.89808Z" fill="white"/>
</svg>
