<svg width="32" height="32" viewBox="0 0 32 32" fill="none" xmlns="http://www.w3.org/2000/svg">
<path d="M26.5156 15.4167C26.5156 15.3333 26.529 15.25 26.529 15.1667C26.529 10.6528 23.0603 7 18.7812 7C15.6942 7 13.0424 8.90278 11.7969 11.6528C11.2545 11.3681 10.6451 11.2014 10.0022 11.2014C8.02679 11.2014 6.37946 12.7222 6.06473 14.7083C3.6942 15.5556 2 17.9097 2 20.6806C2 24.1667 4.68527 27 7.9933 27H14.8571V21.4444H11.6295L17 15.6319L22.3705 21.4375H19.1429V26.9931H26.529C29.5558 26.9931 32 24.3889 32 21.2014C32 18.0139 29.5424 15.4236 26.5156 15.4167Z" fill="white"/>
</svg>
