<svg width="24" height="24" viewBox="0 0 24 24" fill="none" xmlns="http://www.w3.org/2000/svg">
<path d="M7.2 7.2V2.4C7.2 1.08 8.28 0 9.6 0H21.6C22.2365 0 22.847 0.252856 23.2971 0.702944C23.7471 1.15303 24 1.76348 24 2.4V14.4C24 15.0365 23.7471 15.647 23.2971 16.0971C22.847 16.5471 22.2365 16.8 21.6 16.8H16.8V21.6C16.8 22.2365 16.5471 22.847 16.0971 23.2971C15.647 23.7471 15.0365 24 14.4 24H2.4C1.76348 24 1.15303 23.7471 0.702944 23.2971C0.252856 22.847 0 22.2365 0 21.6V9.6C0 8.28 1.08 7.2 2.4 7.2H7.2ZM9.6 7.2H14.4C15.0365 7.2 15.647 7.45286 16.0971 7.90294C16.5471 8.35303 16.8 8.96348 16.8 9.6V14.4H21.6V2.4H9.6V7.2ZM2.4 9.6V21.6H14.4V9.6H2.4ZM7.2 14.4V12H9.6V14.4H12V16.8H9.6V19.2H7.2V16.8H4.8V14.4H7.2Z" fill="white"/>
</svg>
