<svg width="24" height="24" viewBox="0 0 24 24" fill="none" xmlns="http://www.w3.org/2000/svg">
<path d="M12 1C18.0752 1 23 5.92486 23 12C23 18.0752 18.0752 23 12 23C5.92486 23 1 18.0752 1 12C1 5.92486 5.92486 1 12 1ZM12 15.4375C11.4305 15.4375 10.9688 15.8992 10.9688 16.4688C10.9688 17.0383 11.4305 17.5 12 17.5C12.5695 17.5 13.0312 17.0383 13.0312 16.4688C13.0312 15.8992 12.5695 15.4375 12 15.4375ZM12 6.5C11.6625 6.5 11.3818 6.74321 11.3236 7.06392L11.3125 7.1875V13.375L11.3236 13.4986C11.3818 13.8193 11.6625 14.0625 12 14.0625C12.3376 14.0625 12.6182 13.8193 12.6764 13.4986L12.6875 13.375V7.1875L12.6764 7.06392C12.6182 6.74321 12.3376 6.5 12 6.5Z" fill="white"/>
</svg>
