<svg width="24" height="24" viewBox="0 0 24 24" fill="none" xmlns="http://www.w3.org/2000/svg">
<path d="M23 12C23 5.92486 18.0752 1 12 1C5.92486 1 1 5.92486 1 12C1 18.0752 5.92486 23 12 23C18.0752 23 23 18.0752 23 12ZM11.3236 10.5014C11.3818 10.1807 11.6625 9.93749 12 9.93749C12.3376 9.93749 12.6182 10.1807 12.6764 10.5014L12.6875 10.625V16.8154L12.6764 16.939C12.6182 17.2598 12.3376 17.5029 12 17.5029C11.6625 17.5029 11.3818 17.2598 11.3236 16.939L11.3125 16.8154V10.625L11.3236 10.5014ZM10.9688 7.53124C10.9688 6.9617 11.4305 6.49999 12 6.49999C12.5695 6.49999 13.0312 6.9617 13.0312 7.53124C13.0312 8.10079 12.5695 8.56249 12 8.56249C11.4305 8.56249 10.9688 8.10079 10.9688 7.53124Z" fill="white"/>
</svg>
