<svg width="21" height="24" viewBox="0 0 21 24" fill="none" xmlns="http://www.w3.org/2000/svg">
<path d="M17.9643 10.625H16.9464V7.53125C16.9464 3.93047 14.054 1 10.5 1C6.94598 1 4.05357 3.93047 4.05357 7.53125V10.625H3.03571C1.91183 10.625 1 11.5488 1 12.6875V20.9375C1 22.0762 1.91183 23 3.03571 23H17.9643C19.0882 23 20 22.0762 20 20.9375V12.6875C20 11.5488 19.0882 10.625 17.9643 10.625ZM13.5536 10.625H7.44643V7.53125C7.44643 5.82539 8.81629 4.4375 10.5 4.4375C12.1837 4.4375 13.5536 5.82539 13.5536 7.53125V10.625Z" fill="white"/>
</svg>
