<svg viewBox="0 0 24 24" fill="none" xmlns="http://www.w3.org/2000/svg">
<path d="M22.2857 12C22.2857 13.3929 22.0134 14.7232 21.4688 15.9911C20.9241 17.2589 20.192 18.3527 19.2723 19.2723C18.3527 20.192 17.2589 20.9241 15.9911 21.4687C14.7232 22.0134 13.3929 22.2857 12 22.2857C10.6072 22.2857 9.27679 22.0134 8.00894 21.4687C6.74108 20.9241 5.64733 20.192 4.72769 19.2723C3.80804 18.3527 3.0759 17.2589 2.53126 15.9911C1.98662 14.7232 1.71429 13.3929 1.71429 12C1.71429 10.375 2.07367 8.84375 2.79242 7.40625C3.51117 5.96875 4.52233 4.76339 5.8259 3.79018C6.20983 3.50446 6.63617 3.39286 7.10492 3.45536C7.57367 3.51786 7.94644 3.74107 8.22322 4.125C8.50894 4.5 8.61831 4.92187 8.55135 5.39062C8.48438 5.85937 8.2634 6.23661 7.8884 6.52232C7.0134 7.18304 6.33706 7.99107 5.85938 8.94643C5.3817 9.90178 5.14287 10.9196 5.14287 12C5.14287 12.9286 5.32367 13.8147 5.68528 14.6585C6.04688 15.5022 6.53572 16.2321 7.15179 16.8482C7.76787 17.4643 8.49778 17.9531 9.34153 18.3147C10.1853 18.6763 11.0714 18.8571 12 18.8571C12.9286 18.8571 13.8147 18.6763 14.6585 18.3147C15.5022 17.9531 16.2322 17.4643 16.8482 16.8482C17.4643 16.2321 17.9531 15.5022 18.3147 14.6585C18.6763 13.8147 18.8571 12.9286 18.8571 12C18.8571 10.9196 18.6183 9.90178 18.1406 8.94643C17.663 7.99107 16.9866 7.18304 16.1116 6.52232C15.7366 6.23661 15.5156 5.85937 15.4487 5.39062C15.3817 4.92187 15.4911 4.5 15.7768 4.125C16.0536 3.74107 16.4286 3.51786 16.9018 3.45536C17.375 3.39286 17.7991 3.50446 18.1741 3.79018C19.4777 4.76339 20.4888 5.96875 21.2076 7.40625C21.9263 8.84375 22.2857 10.375 22.2857 12ZM13.7143 1.71429V10.2857C13.7143 10.75 13.5447 11.1518 13.2054 11.4911C12.8661 11.8304 12.4643 12 12 12C11.5357 12 11.1339 11.8304 10.7947 11.4911C10.4554 11.1518 10.2857 10.75 10.2857 10.2857V1.71429C10.2857 1.25 10.4554 0.848214 10.7947 0.508929C11.1339 0.169643 11.5357 0 12 0C12.4643 0 12.8661 0.169643 13.2054 0.508929C13.5447 0.848214 13.7143 1.25 13.7143 1.71429Z"/>
</svg>
