<svg width="31" height="32" viewBox="0 0 31 32" fill="none" xmlns="http://www.w3.org/2000/svg">
<path d="M27.1368 24.205C26.8867 24.2188 26.6505 24.2188 26.4003 24.2188C22.3569 24.2188 18.5497 22.6487 15.6874 19.7864C12.825 16.924 11.2549 13.1168 11.2549 9.07338C11.2549 6.76683 11.769 4.54364 12.7277 2.52888C13.1585 1.6396 13.6726 0.79201 14.2701 0C13.2141 0.111159 12.1997 0.333477 11.2132 0.639165C4.71038 2.69561 0 8.76769 0 15.9514C0 24.8163 7.18367 32 16.0486 32C20.9535 32 25.3304 29.8046 28.2762 26.3448C28.9431 25.5528 29.5545 24.6913 30.0547 23.7742C29.1099 24.0104 28.1372 24.1633 27.1368 24.205Z" fill="white"/>
</svg>
