<svg width="32" height="32" viewBox="0 0 32 32" fill="none" xmlns="http://www.w3.org/2000/svg">
<path d="M25.3334 10.6667H6.66669C4.46002 10.6667 2.66669 12.46 2.66669 14.6667V22.6667H8.00002V28H24V22.6667H29.3334V14.6667C29.3334 12.46 27.54 10.6667 25.3334 10.6667ZM21.3334 25.3333H10.6667V18.6667H21.3334V25.3333ZM25.3334 16C24.5934 16 24 15.4067 24 14.6667C24 13.9267 24.5934 13.3333 25.3334 13.3333C26.0734 13.3333 26.6667 13.9267 26.6667 14.6667C26.6667 15.4067 26.0734 16 25.3334 16ZM24 4H8.00002V9.33333H24V4Z" fill="white"/>
</svg>
