<svg width="32" height="32" viewBox="0 0 32 32" fill="none" xmlns="http://www.w3.org/2000/svg">
<path d="M25.9067 17.3C25.96 16.8733 26 16.44 26 16C26 15.56 25.96 15.1267 25.9067 14.7L28.7267 12.4933C28.98 12.2933 29.0534 11.9333 28.8867 11.64L26.22 7.02C26.0534 6.73333 25.7067 6.61333 25.4067 6.73333L22.0867 8.07333C21.4 7.54666 20.6467 7.1 19.8333 6.76L19.3333 3.22666C19.2733 2.91333 19 2.66666 18.6667 2.66666H13.3333C13 2.66666 12.7267 2.91333 12.6733 3.22666L12.1733 6.76C11.36 7.1 10.6067 7.54 9.92001 8.07333L6.60001 6.73333C6.30001 6.62 5.95335 6.73333 5.78668 7.02L3.12001 11.64C2.95335 11.9267 3.02668 12.2867 3.28001 12.4933L6.09335 14.7C6.04001 15.1267 6.00001 15.56 6.00001 16C6.00001 16.44 6.04001 16.8733 6.09335 17.3L3.28001 19.5067C3.02668 19.7067 2.95335 20.0667 3.12001 20.36L5.78668 24.98C5.95335 25.2667 6.30001 25.3867 6.60001 25.2667L9.92001 23.9267C10.6067 24.4533 11.36 24.9 12.1733 25.24L12.6733 28.7733C12.7267 29.0867 13 29.3333 13.3333 29.3333H18.6667C19 29.3333 19.2733 29.0867 19.3267 28.7733L19.8267 25.24C20.64 24.9 21.3933 24.46 22.08 23.9267L25.4 25.2667C25.7 25.38 26.0467 25.2667 26.2133 24.98L28.88 20.36C29.0467 20.0733 28.9734 19.7133 28.72 19.5067L25.9067 17.3V17.3ZM16 20.6667C13.42 20.6667 11.3333 18.58 11.3333 16C11.3333 13.42 13.42 11.3333 16 11.3333C18.58 11.3333 20.6667 13.42 20.6667 16C20.6667 18.58 18.58 20.6667 16 20.6667Z" fill="white"/>
</svg>
