<svg width="15" height="24" viewBox="0 0 15 24" fill="none" xmlns="http://www.w3.org/2000/svg">
<g clip-path="url(#clip0_435_2)">
<path fill-rule="evenodd" clip-rule="evenodd" d="M1.29652 13.5H13.7015C14.8546 13.5 15.4312 14.8969 14.617 15.7074L8.41543 22.1199C8.16183 22.3733 7.83057 22.5 7.49996 22.5C7.12964 22.5 6.83902 22.3734 6.59152 22.1213L0.380588 15.7087C-0.432693 14.8955 0.1434 13.5 1.29652 13.5Z" class="down" fill="white"/>
<path d="M1.29657 10.5H13.7044C14.8575 10.5 15.4336 9.10405 14.6203 8.29124L8.41875 1.87873C8.16534 1.62533 7.83422 1.49872 7.50328 1.49872C7.17258 1.49872 6.84281 1.62533 6.59156 1.87873L0.380584 8.29217C-0.432603 9.10311 0.143209 10.5 1.29657 10.5Z" class="up" fill="white"/>
</g>
<defs>
<clipPath id="clip0_435_2">
<rect width="15" height="24" fill="white"/>
</clipPath>
</defs>
</svg>
