<svg width="32" height="32" viewBox="0 0 32 32" fill="none" xmlns="http://www.w3.org/2000/svg">
<g clip-path="url(#clip0_651:2)">
<path d="M30.3997 14.7202C30.1098 14.7202 29.1216 14.7202 28.8317 14.7202C27.9479 14.7202 27.2317 15.2933 27.2317 16.0002C27.2317 16.707 27.9479 17.2801 28.8317 17.2801C29.1216 17.2801 30.1098 17.2801 30.3997 17.2801C31.2835 17.2801 31.9997 16.707 31.9997 16.0002C31.9997 15.2933 31.2835 14.7202 30.3997 14.7202ZM15.9998 7.20057C11.1192 7.20057 7.19993 11.1199 7.19993 16.0002C7.19993 20.8808 11.1192 24.8004 15.9998 24.8004C20.8804 24.8004 24.7998 20.8808 24.7998 16.0002C24.7998 11.1199 20.8804 7.20057 15.9998 7.20057ZM15.9998 22.4001C12.4636 22.4001 9.5999 19.5361 9.5999 16.0002C9.5999 12.4645 12.4636 9.5999 15.9998 9.5999C19.5355 9.5999 22.3998 12.4645 22.3998 16.0002C22.3998 19.5361 19.5355 22.4001 15.9998 22.4001ZM4.76731 16.0002C4.76731 15.2933 4.08348 14.7202 3.19997 14.7202C2.90493 14.7202 1.89438 14.7202 1.59998 14.7202C0.716153 14.7202 0 15.2933 0 16.0002C0 16.707 0.716153 17.2801 1.59998 17.2801C1.89438 17.2801 2.90493 17.2801 3.19997 17.2801C4.0838 17.2801 4.76731 16.707 4.76731 16.0002ZM15.9998 4.79995C16.7067 4.79995 17.2798 4.0838 17.2798 3.19997C17.2798 2.90717 17.2798 1.8931 17.2798 1.59998C17.2798 0.716153 16.7067 0 15.9998 0C15.293 0 14.7199 0.716153 14.7199 1.59998C14.7199 1.8931 14.7199 2.90717 14.7199 3.19997C14.7199 4.0838 15.293 4.79995 15.9998 4.79995ZM15.9998 27.2C15.293 27.2 14.7199 27.9162 14.7199 28.8C14.7199 29.0928 14.7199 30.1069 14.7199 30.4C14.7199 31.2838 15.293 32 15.9998 32C16.7067 32 17.2798 31.2838 17.2798 30.4C17.2798 30.1069 17.2798 29.0928 17.2798 28.8C17.2798 27.9162 16.7067 27.2 15.9998 27.2ZM27.7847 6.02554C28.4096 5.40091 28.5111 4.4886 28.0109 3.98876C27.5108 3.48893 26.5991 3.59068 25.9748 4.215C25.8023 4.38748 25.0273 5.16251 24.8548 5.33499C24.2298 5.95994 24.1284 6.87161 24.6286 7.37113C25.1284 7.87128 26.0404 7.77016 26.6647 7.14553C26.8372 6.97305 27.6128 6.19802 27.7847 6.02554ZM5.33435 24.8551C5.16187 25.0276 4.38684 25.8033 4.21436 25.9751C3.59004 26.5994 3.48861 27.5114 3.98812 28.0112C4.48796 28.5111 5.39995 28.4093 6.02426 27.785C6.19674 27.6132 6.97241 26.8381 7.14425 26.6657C7.7692 26.041 7.87064 25.1287 7.37049 24.6289C6.87033 24.129 5.95866 24.2308 5.33435 24.8551ZM6.02554 4.215C5.40059 3.59036 4.4886 3.48861 3.98876 3.98876C3.48893 4.48892 3.59068 5.40059 4.215 6.02522C4.38748 6.19738 5.16251 6.97305 5.33499 7.14521C5.95994 7.76984 6.87129 7.87128 7.37113 7.37113C7.87096 6.87097 7.76984 5.95962 7.14553 5.33499C6.97305 5.16251 6.19802 4.38748 6.02554 4.215ZM24.8548 26.6657C25.0273 26.8381 25.8029 27.6132 25.9754 27.7853C26.5997 28.4096 27.5117 28.5114 28.0116 28.0116C28.5111 27.5117 28.4096 26.5997 27.7853 25.9754C27.6128 25.8033 26.8378 25.0276 26.6653 24.8554C26.041 24.2308 25.1284 24.129 24.6286 24.6292C24.1287 25.1293 24.2305 26.041 24.8548 26.6657Z" fill="white"/>
</g>
<defs>
<clipPath id="clip0_651:2">
<rect width="31.9997" height="32" fill="white"/>
</clipPath>
</defs>
</svg>
