<svg width="27" height="24" viewBox="0 0 27 24" fill="none" xmlns="http://www.w3.org/2000/svg">
<path d="M19.1972 1.00004C15.5879 1.01293 12.6875 3.98637 12.6875 7.59573V10.625H3.0625C1.92383 10.625 1 11.5488 1 12.6875V20.9375C1 22.0762 1.92383 23 3.0625 23H18.1875C19.3261 23 20.25 22.0762 20.25 20.9375V12.6875C20.25 11.5488 19.3261 10.625 18.1875 10.625H16.125V7.56995C16.125 5.86839 17.4871 4.45472 19.1886 4.43754C20.9074 4.42035 22.3125 5.81683 22.3125 7.53128V10.9688C22.3125 11.5403 22.7722 12 23.3437 12H24.7187C25.2902 12 25.75 11.5403 25.75 10.9688V7.53128C25.75 3.92191 22.8066 0.987152 19.1972 1.00004Z" fill="white"/>
</svg>
